<mxfile host="app.diagrams.net" modified="2024-03-18T17:30:57.995Z" agent="Mozilla/5.0 (Windows NT 10.0; Win64; x64) AppleWebKit/537.36 (KHTML, like Gecko) Chrome/122.0.0.0 Safari/537.36" etag="cfOR93S3WEZIr02QvJyr" version="24.0.7" type="github">
  <diagram name="PÃ¡gina-1" id="4Q_N1aAh4HhvyQWwlxK4">
    <mxGraphModel dx="2074" dy="738" grid="1" gridSize="10" guides="1" tooltips="1" connect="1" arrows="1" fold="1" page="1" pageScale="1" pageWidth="827" pageHeight="1169" math="0" shadow="0">
      <root>
        <mxCell id="0" />
        <mxCell id="1" parent="0" />
        <mxCell id="xmS4A58ACWDXD8hnW-X0-1" value="API GW" style="image;aspect=fixed;html=1;points=[];align=right;fontSize=12;image=img/lib/azure2/app_services/API_Management_Services.svg;labelPosition=left;verticalLabelPosition=bottom;verticalAlign=top;fontColor=#000000;" parent="1" vertex="1">
          <mxGeometry x="191" y="158" width="65" height="60" as="geometry" />
        </mxCell>
        <mxCell id="xmS4A58ACWDXD8hnW-X0-7" style="edgeStyle=orthogonalEdgeStyle;rounded=0;orthogonalLoop=1;jettySize=auto;html=1;startArrow=classic;startFill=1;" parent="1" source="xmS4A58ACWDXD8hnW-X0-6" target="xmS4A58ACWDXD8hnW-X0-1" edge="1">
          <mxGeometry relative="1" as="geometry">
            <Array as="points">
              <mxPoint x="151" y="188" />
              <mxPoint x="151" y="188" />
            </Array>
          </mxGeometry>
        </mxCell>
        <mxCell id="xmS4A58ACWDXD8hnW-X0-6" value="Frontend" style="verticalLabelPosition=bottom;aspect=fixed;html=1;shape=mxgraph.salesforce.web;labelBorderColor=none;fontColor=#000000;" parent="1" vertex="1">
          <mxGeometry x="50" y="164.3" width="60" height="47.400000000000006" as="geometry" />
        </mxCell>
        <mxCell id="xmS4A58ACWDXD8hnW-X0-44" style="edgeStyle=orthogonalEdgeStyle;rounded=0;orthogonalLoop=1;jettySize=auto;html=1;fontColor=#000000;startArrow=classic;startFill=1;" parent="1" source="xmS4A58ACWDXD8hnW-X0-14" target="xmS4A58ACWDXD8hnW-X0-1" edge="1">
          <mxGeometry relative="1" as="geometry" />
        </mxCell>
        <mxCell id="xmS4A58ACWDXD8hnW-X0-14" value="Azure AD" style="verticalLabelPosition=top;html=1;verticalAlign=bottom;align=right;strokeColor=none;fillColor=#00BEF2;shape=mxgraph.azure.azure_active_directory;labelPosition=left;fontColor=#000000;" parent="1" vertex="1">
          <mxGeometry x="199.75" y="60" width="47.5" height="50" as="geometry" />
        </mxCell>
        <mxCell id="xmS4A58ACWDXD8hnW-X0-20" value="" style="edgeStyle=orthogonalEdgeStyle;rounded=0;orthogonalLoop=1;jettySize=auto;html=1;fontColor=#000000;entryX=0;entryY=0.5;entryDx=0;entryDy=0;entryPerimeter=0;startArrow=classic;startFill=1;" parent="1" source="xmS4A58ACWDXD8hnW-X0-16" target="xmS4A58ACWDXD8hnW-X0-19" edge="1">
          <mxGeometry relative="1" as="geometry">
            <Array as="points">
              <mxPoint x="440" y="306" />
              <mxPoint x="440" y="510" />
              <mxPoint x="510" y="510" />
            </Array>
          </mxGeometry>
        </mxCell>
        <mxCell id="xmS4A58ACWDXD8hnW-X0-16" value="Backend" style="verticalLabelPosition=bottom;html=1;verticalAlign=top;align=center;strokeColor=none;fillColor=#00BEF2;shape=mxgraph.azure.azure_website;pointerEvents=1;fontColor=#000000;" parent="1" vertex="1">
          <mxGeometry x="330" y="281" width="50" height="50" as="geometry" />
        </mxCell>
        <mxCell id="xmS4A58ACWDXD8hnW-X0-38" style="edgeStyle=orthogonalEdgeStyle;rounded=0;orthogonalLoop=1;jettySize=auto;html=1;fontColor=#000000;startArrow=classic;startFill=1;" parent="1" source="xmS4A58ACWDXD8hnW-X0-19" target="xmS4A58ACWDXD8hnW-X0-34" edge="1">
          <mxGeometry relative="1" as="geometry">
            <Array as="points">
              <mxPoint x="590" y="511" />
              <mxPoint x="590" y="570" />
            </Array>
          </mxGeometry>
        </mxCell>
        <mxCell id="xmS4A58ACWDXD8hnW-X0-19" value="Dcuments" style="verticalLabelPosition=bottom;html=1;verticalAlign=top;align=right;strokeColor=none;fillColor=#00BEF2;shape=mxgraph.azure.azure_website;pointerEvents=1;labelPosition=left;fontColor=#000000;" parent="1" vertex="1">
          <mxGeometry x="510" y="486" width="50" height="50" as="geometry" />
        </mxCell>
        <mxCell id="xmS4A58ACWDXD8hnW-X0-36" style="edgeStyle=orthogonalEdgeStyle;rounded=0;orthogonalLoop=1;jettySize=auto;html=1;fontColor=#000000;startArrow=classic;startFill=1;" parent="1" source="xmS4A58ACWDXD8hnW-X0-21" target="xmS4A58ACWDXD8hnW-X0-33" edge="1">
          <mxGeometry relative="1" as="geometry" />
        </mxCell>
        <mxCell id="xmS4A58ACWDXD8hnW-X0-21" value="Results" style="verticalLabelPosition=bottom;html=1;verticalAlign=top;align=right;strokeColor=none;fillColor=#00BEF2;shape=mxgraph.azure.azure_website;pointerEvents=1;labelPosition=left;fontColor=#000000;" parent="1" vertex="1">
          <mxGeometry x="510" y="80" width="50" height="50" as="geometry" />
        </mxCell>
        <mxCell id="xmS4A58ACWDXD8hnW-X0-32" style="edgeStyle=orthogonalEdgeStyle;rounded=0;orthogonalLoop=1;jettySize=auto;html=1;fontColor=#000000;startArrow=classic;startFill=1;" parent="1" source="xmS4A58ACWDXD8hnW-X0-26" target="xmS4A58ACWDXD8hnW-X0-31" edge="1">
          <mxGeometry relative="1" as="geometry" />
        </mxCell>
        <mxCell id="xmS4A58ACWDXD8hnW-X0-26" value="OCR" style="verticalLabelPosition=bottom;html=1;verticalAlign=top;align=right;strokeColor=none;fillColor=#00BEF2;shape=mxgraph.azure.azure_website;pointerEvents=1;labelPosition=left;fontColor=#000000;" parent="1" vertex="1">
          <mxGeometry x="510" y="317" width="50" height="50" as="geometry" />
        </mxCell>
        <mxCell id="xmS4A58ACWDXD8hnW-X0-28" value="IA Gen" style="verticalLabelPosition=bottom;html=1;verticalAlign=top;align=right;strokeColor=none;fillColor=#00BEF2;shape=mxgraph.azure.azure_website;pointerEvents=1;labelPosition=left;fontColor=#000000;" parent="1" vertex="1">
          <mxGeometry x="510" y="200" width="50" height="50" as="geometry" />
        </mxCell>
        <mxCell id="xmS4A58ACWDXD8hnW-X0-31" value="DB Transcriptions" style="image;aspect=fixed;html=1;points=[];align=center;fontSize=12;image=img/lib/azure2/databases/Azure_Cosmos_DB.svg;fontColor=#000000;" parent="1" vertex="1">
          <mxGeometry x="616" y="310" width="64" height="64" as="geometry" />
        </mxCell>
        <mxCell id="xmS4A58ACWDXD8hnW-X0-33" value="DB Results" style="image;aspect=fixed;html=1;points=[];align=center;fontSize=12;image=img/lib/azure2/databases/Azure_Cosmos_DB.svg;fontColor=#000000;" parent="1" vertex="1">
          <mxGeometry x="616" y="73" width="64" height="64" as="geometry" />
        </mxCell>
        <mxCell id="xmS4A58ACWDXD8hnW-X0-34" value="DB Documents metadata" style="image;aspect=fixed;html=1;points=[];align=center;fontSize=12;image=img/lib/azure2/databases/Azure_Cosmos_DB.svg;fontColor=#000000;" parent="1" vertex="1">
          <mxGeometry x="616" y="536" width="64" height="64" as="geometry" />
        </mxCell>
        <mxCell id="xmS4A58ACWDXD8hnW-X0-35" value="Storage Documents" style="image;sketch=0;aspect=fixed;html=1;points=[];align=center;fontSize=12;image=img/lib/mscae/BlobBlock.svg;labelPosition=center;verticalLabelPosition=bottom;verticalAlign=top;fontColor=#000000;" parent="1" vertex="1">
          <mxGeometry x="623" y="426" width="50" height="42" as="geometry" />
        </mxCell>
        <mxCell id="xmS4A58ACWDXD8hnW-X0-40" style="edgeStyle=orthogonalEdgeStyle;rounded=0;orthogonalLoop=1;jettySize=auto;html=1;fontColor=#000000;exitX=1;exitY=0.5;exitDx=0;exitDy=0;exitPerimeter=0;" parent="1" source="xmS4A58ACWDXD8hnW-X0-19" target="xmS4A58ACWDXD8hnW-X0-35" edge="1">
          <mxGeometry relative="1" as="geometry">
            <Array as="points">
              <mxPoint x="590" y="511" />
              <mxPoint x="590" y="452" />
            </Array>
            <mxPoint x="580" y="436" as="targetPoint" />
          </mxGeometry>
        </mxCell>
        <mxCell id="xmS4A58ACWDXD8hnW-X0-41" value="BFF" style="verticalLabelPosition=bottom;html=1;verticalAlign=top;align=right;strokeColor=none;fillColor=#00BEF2;shape=mxgraph.azure.azure_website;pointerEvents=1;labelPosition=left;fontColor=#000000;" parent="1" vertex="1">
          <mxGeometry x="198.5" y="281" width="50" height="50" as="geometry" />
        </mxCell>
        <mxCell id="xmS4A58ACWDXD8hnW-X0-53" style="edgeStyle=orthogonalEdgeStyle;rounded=0;orthogonalLoop=1;jettySize=auto;html=1;entryX=0;entryY=0.5;entryDx=0;entryDy=0;entryPerimeter=0;startArrow=classic;startFill=1;" parent="1" source="xmS4A58ACWDXD8hnW-X0-41" target="xmS4A58ACWDXD8hnW-X0-16" edge="1">
          <mxGeometry relative="1" as="geometry" />
        </mxCell>
        <mxCell id="xmS4A58ACWDXD8hnW-X0-54" style="edgeStyle=orthogonalEdgeStyle;rounded=0;orthogonalLoop=1;jettySize=auto;html=1;entryX=0.5;entryY=0;entryDx=0;entryDy=0;entryPerimeter=0;startArrow=classic;startFill=1;" parent="1" source="xmS4A58ACWDXD8hnW-X0-1" target="xmS4A58ACWDXD8hnW-X0-41" edge="1">
          <mxGeometry relative="1" as="geometry" />
        </mxCell>
        <mxCell id="hFmta2e70mHD7LbygT5N-4" style="edgeStyle=orthogonalEdgeStyle;rounded=0;orthogonalLoop=1;jettySize=auto;html=1;entryX=0;entryY=0.5;entryDx=0;entryDy=0;entryPerimeter=0;" edge="1" parent="1" source="xmS4A58ACWDXD8hnW-X0-16" target="xmS4A58ACWDXD8hnW-X0-26">
          <mxGeometry relative="1" as="geometry">
            <Array as="points">
              <mxPoint x="440" y="306" />
              <mxPoint x="440" y="342" />
            </Array>
          </mxGeometry>
        </mxCell>
        <mxCell id="hFmta2e70mHD7LbygT5N-5" style="edgeStyle=orthogonalEdgeStyle;rounded=0;orthogonalLoop=1;jettySize=auto;html=1;entryX=0;entryY=0.5;entryDx=0;entryDy=0;entryPerimeter=0;" edge="1" parent="1" source="xmS4A58ACWDXD8hnW-X0-16" target="xmS4A58ACWDXD8hnW-X0-28">
          <mxGeometry relative="1" as="geometry">
            <Array as="points">
              <mxPoint x="440" y="306" />
              <mxPoint x="440" y="225" />
            </Array>
          </mxGeometry>
        </mxCell>
        <mxCell id="hFmta2e70mHD7LbygT5N-6" style="edgeStyle=orthogonalEdgeStyle;rounded=0;orthogonalLoop=1;jettySize=auto;html=1;entryX=0;entryY=0.5;entryDx=0;entryDy=0;entryPerimeter=0;" edge="1" parent="1" source="xmS4A58ACWDXD8hnW-X0-16" target="xmS4A58ACWDXD8hnW-X0-21">
          <mxGeometry relative="1" as="geometry">
            <Array as="points">
              <mxPoint x="440" y="306" />
              <mxPoint x="440" y="105" />
            </Array>
          </mxGeometry>
        </mxCell>
      </root>
    </mxGraphModel>
  </diagram>
</mxfile>
